<?xml version="1.0" encoding="iso-8859-1"?>
<!-- Generator: Adobe Illustrator 16.0.0, SVG Export Plug-In . SVG Version: 6.00 Build 0)  -->
<!DOCTYPE svg PUBLIC "-//W3C//DTD SVG 1.1//EN" "http://www.w3.org/Graphics/SVG/1.1/DTD/svg11.dtd">
<svg version="1.1" id="Capa_1" xmlns="http://www.w3.org/2000/svg" xmlns:xlink="http://www.w3.org/1999/xlink" x="0px" y="0px"
	 width="57.344px" height="57.344px" viewBox="0 0 57.344 57.344" style="enable-background:new 0 0 57.344 57.344;"
	 xml:space="preserve">
<g>
	<ellipse cx="28.672" cy="2.873" rx="13.784" ry="2.873"/>
	<path d="M42.055,52.808V4.637c-3.183,1.329-8.36,1.686-12.98,1.686c-5.033,0-10.729-0.418-13.785-2.059v48.543
		c0,1.151,0.871,2.423,1.972,2.754c2.423,0.726,6.901,1.782,12.438,1.782c5.254,0,8.612-0.854,10.48-1.554
		C41.257,55.386,42.055,53.958,42.055,52.808z M21.358,51.126c-2.32-0.416-3.847-0.978-4.763-1.396v-7.758
		c1.052,0.44,2.597,0.951,4.763,1.333V51.126z M21.358,41.804c-2.37-0.443-3.902-1.043-4.763-1.46v-5.656
		c1.052,0.44,2.597,0.952,4.763,1.331V41.804z M21.358,34.513c-2.379-0.441-3.905-1.039-4.763-1.452v-5.656
		c1.052,0.441,2.597,0.951,4.763,1.333V34.513z M21.358,27.229c-2.379-0.442-3.905-1.038-4.763-1.45v-5.658
		c1.052,0.438,2.597,0.951,4.763,1.33V27.229z M21.358,19.955c-2.37-0.441-3.902-1.045-4.763-1.459v-5.657
		c1.052,0.441,2.597,0.951,4.763,1.333V19.955z M21.358,12.663c-2.379-0.441-3.905-1.039-4.763-1.449V6.74
		c1.21,0.646,2.889,1.075,4.763,1.362V12.663z M26.237,51.634c-1.571-0.065-2.944-0.203-4.137-0.387v-7.816
		c1.201,0.181,2.582,0.316,4.137,0.383V51.634z M26.237,42.334c-1.574-0.069-2.95-0.214-4.137-0.405v-5.784
		c1.201,0.182,2.582,0.319,4.137,0.385V42.334z M26.237,35.044c-1.576-0.071-2.95-0.218-4.137-0.409v-5.772
		c1.201,0.181,2.582,0.316,4.137,0.384V35.044z M26.237,27.761c-1.576-0.071-2.95-0.218-4.137-0.408V21.58
		c1.201,0.181,2.582,0.318,4.137,0.382V27.761z M26.237,20.483c-1.574-0.067-2.95-0.21-4.137-0.401v-5.785
		c1.201,0.181,2.582,0.317,4.137,0.383V20.483z M26.237,13.196c-1.576-0.072-2.95-0.217-4.137-0.41V8.213
		c1.324,0.171,2.729,0.27,4.137,0.325V13.196z M31.115,51.597c-0.837,0.039-1.709,0.069-2.651,0.075
		c-0.11,0.003-0.219,0.003-0.328,0.003c-0.403,0-0.779-0.011-1.159-0.021V43.84c0.444,0.01,0.886,0.022,1.356,0.022
		c0.112,0,0.229,0,0.345-0.003c0.859-0.006,1.663-0.032,2.437-0.063V51.597L31.115,51.597z M31.115,42.312
		c-0.776,0.033-1.583,0.061-2.451,0.064c-0.584,0.006-1.146,0.002-1.688-0.013v-5.81c0.444,0.014,0.886,0.023,1.356,0.023
		c0.111,0,0.229,0,0.345-0.002c0.859-0.006,1.663-0.03,2.438-0.063V42.312z M31.115,35.027c-0.776,0.035-1.583,0.062-2.451,0.068
		c-0.108,0.002-0.218,0.002-0.326,0.002c-0.472,0-0.918-0.013-1.362-0.023v-5.8c0.444,0.011,0.886,0.021,1.356,0.021
		c0.111,0,0.229,0,0.345-0.001c0.859-0.006,1.663-0.031,2.438-0.065V35.027z M31.115,27.746c-0.776,0.034-1.583,0.061-2.451,0.065
		c-0.108,0.001-0.218,0.001-0.326,0.001c-0.472,0-0.918-0.01-1.362-0.023v-5.8c0.444,0.013,0.886,0.023,1.356,0.023
		c0.111,0,0.229,0,0.345-0.001c0.859-0.005,1.663-0.031,2.438-0.064V27.746z M31.115,20.46c-0.776,0.036-1.583,0.062-2.451,0.068
		c-0.584,0.006-1.146,0.001-1.688-0.014v-5.809c0.444,0.012,0.886,0.023,1.356,0.023c0.111,0,0.229,0,0.345-0.002
		c0.859-0.007,1.663-0.032,2.438-0.065V20.46z M31.115,13.179c-0.776,0.033-1.583,0.061-2.451,0.066
		c-0.108,0.002-0.218,0.002-0.326,0.002c-0.472,0-0.918-0.01-1.362-0.023V8.566c0.693,0.019,1.382,0.032,2.057,0.032
		c0.684,0,1.381-0.014,2.082-0.033V13.179z M35.995,51.132c-1.188,0.178-2.559,0.331-4.14,0.429v-7.799
		c1.561-0.087,2.936-0.227,4.14-0.393V51.132z M35.995,41.868c-1.191,0.173-2.569,0.318-4.14,0.409v-5.799
		c1.561-0.087,2.936-0.226,4.14-0.395V41.868z M35.995,34.587c-1.191,0.171-2.569,0.316-4.14,0.406v-5.798
		c1.561-0.087,2.936-0.227,4.14-0.394V34.587z M35.995,27.302c-1.191,0.173-2.569,0.318-4.14,0.408v-5.799
		c1.561-0.086,2.936-0.226,4.14-0.393V27.302z M35.995,20.02c-1.191,0.171-2.569,0.316-4.14,0.407v-5.799
		c1.561-0.087,2.936-0.226,4.14-0.393V20.02z M35.995,12.735c-1.191,0.172-2.569,0.317-4.14,0.408V8.54
		c1.41-0.057,2.812-0.165,4.14-0.337V12.735z M40.746,50.046c-0.845,0.284-2.154,0.651-4.012,0.968v-7.756
		c1.732-0.272,3.042-0.596,4.012-0.885V50.046z M40.746,40.816c-0.881,0.282-2.198,0.635-4.012,0.933v-5.774
		c1.732-0.273,3.042-0.599,4.012-0.89V40.816z M40.746,33.533c-0.881,0.282-2.198,0.635-4.012,0.933V28.69
		c1.732-0.273,3.042-0.596,4.012-0.885V33.533z M40.746,26.249c-0.881,0.285-2.198,0.636-4.012,0.936v-5.776
		c1.732-0.271,3.042-0.597,4.012-0.887V26.249z M40.746,18.967c-0.881,0.284-2.198,0.635-4.012,0.933v-5.776
		c1.732-0.273,3.042-0.596,4.012-0.885V18.967z M40.746,11.682c-0.881,0.283-2.198,0.635-4.012,0.933V8.101
		c1.516-0.233,2.9-0.562,4.012-1.025V11.682z"/>
</g>
<g>
</g>
<g>
</g>
<g>
</g>
<g>
</g>
<g>
</g>
<g>
</g>
<g>
</g>
<g>
</g>
<g>
</g>
<g>
</g>
<g>
</g>
<g>
</g>
<g>
</g>
<g>
</g>
<g>
</g>
</svg>
