<?xml version="1.0" encoding="iso-8859-1"?>
<!-- Generator: Adobe Illustrator 18.1.1, SVG Export Plug-In . SVG Version: 6.00 Build 0)  -->
<svg version="1.1" id="Capa_1" xmlns="http://www.w3.org/2000/svg" xmlns:xlink="http://www.w3.org/1999/xlink" x="0px" y="0px"
	 viewBox="0 0 16 16" style="enable-background:new 0 0 16 16;" xml:space="preserve">
<g>
	<g>
		<path style="fill:#010002;" d="M15,2H1C0.448,2,0,2.448,0,3v10c0,0.552,0.448,1,1,1h14c0.552,0,1-0.448,1-1V3
			C16,2.448,15.552,2,15,2z M1,5.845l3.838,2.609L1,12.293V5.845z M1.707,13L5.68,9.027l2.322,1.578l2.309-1.59l3.982,3.984
			L1.707,13L1.707,13z M15,12.293l-3.854-3.854L15,5.788V12.293z M15,4.618l-0.021-0.03L8,9.395L1,4.637V3h14V4.618z"/>
	</g>
</g>
<g>
</g>
<g>
</g>
<g>
</g>
<g>
</g>
<g>
</g>
<g>
</g>
<g>
</g>
<g>
</g>
<g>
</g>
<g>
</g>
<g>
</g>
<g>
</g>
<g>
</g>
<g>
</g>
<g>
</g>
</svg>
