<?xml version="1.0" encoding="iso-8859-1"?>
<!-- Generator: Adobe Illustrator 18.1.1, SVG Export Plug-In . SVG Version: 6.00 Build 0)  -->
<svg version="1.1" id="Capa_1" xmlns="http://www.w3.org/2000/svg" xmlns:xlink="http://www.w3.org/1999/xlink" x="0px" y="0px"
	 viewBox="0 0 209.867 209.867" style="enable-background:new 0 0 209.867 209.867;" xml:space="preserve">
<g>
	<g>
		<path style="fill:#010002;" d="M169.165,127.293l-0.419-0.469c-1.908-2.376-6.109-5.737-12.211-8.067l-0.948-0.286
			c-6.445-2.974-12.222-4.932-13.9-5.486c-1.303-0.437-2.401-0.891-3.368-1.313c-6.954-3.436-7.873-5.443-8.02-5.905l-0.501-1.163
			l-2.598-1.177l-0.225,0.218c-0.115,0.104-10.98,10.375-21.563,10.375c-0.404,0-0.82-0.018-1.213-0.043
			c-11.001-0.848-20.328-9.319-20.428-9.402l-0.089-0.082l-2.967-0.709l-0.805,1.152c-0.143,0.218-0.333,0.558-0.387,0.837
			c-1.21,3.443-14.702,9.47-26.541,13.081c-8.536,3.239-12.254,8.446-12.279,8.489c-11.789,17.504-13.217,54.807-13.27,56.41
			c0.183,9.72,4.606,11.71,5.454,12.003l0.744,0.322c25.836,11.277,63.829,13.524,68.088,13.746l1.321,0.036
			c1.281,0,2.559-0.068,3.758-0.125l0.122-0.011l0.361,0.021c0.336,0.089,0.587,0.122,0.845,0.122h0.011l0.179-0.007
			c1.711-0.093,42.381-2.376,67.801-13.793c1.847-0.494,6.163-2.691,6.32-12.594C182.378,181.884,180.721,144.5,169.165,127.293z
			 M82.714,109.91l0.684,0.655c6.417,6.034,15.135,8.178,21.165,8.178c8.085,0,16.094-2.759,21.441-7.369l0.512-0.44l1.367,0.669
			c0.387,0.354,0.669,0.659,0.909,0.916c0.48,0.519,0.855,0.92,1.471,1.217l1.7,1.092c1.167,0.694,2.441,1.381,3.89,2.104
			c1.5,0.655,2.745,1.135,4.037,1.568c1.095,0.365,6.914,2.312,13.521,5.365l1.263,0.383c6.832,2.609,9.616,6.263,9.616,6.263
			c10.45,15.5,12.19,49.238,12.358,53.006c-0.082,5.268-1.568,6.624-1.961,6.889c-23.452,10.504-58.636,13.167-65.446,13.592
			l-0.186,0.018l-0.179-0.054c-0.24-0.079-0.49-0.104-0.762-0.104h-0.011l-0.236,0.004c-1.911,0.125-3.45,0.197-4.846,0.197
			l-1.131-0.011c-4.252-0.247-42.213-2.709-66.624-13.575c-0.487-0.193-1.918-1.857-2.022-6.692
			c0.004-0.361,1.367-36.952,12.186-53.031c0.537-0.669,3.489-4.123,9.441-6.392c5.236-1.61,18.166-5.916,25.202-11.012
			c0.322-0.183,0.648-0.523,0.909-0.802c0.372-0.387,0.401-0.716,0.426-0.963c0.021-0.243,0.043-0.476,0.619-1.016L82.714,109.91z"
			/>
		<path style="fill:#010002;" d="M85.019,101.256c0.365,0.197,0.784,0.297,1.231,0.297l0,0l0.1,0.004h0.011
			c0.737,0,1.403-0.283,1.872-0.787c0.44-0.48,0.676-1.131,0.676-1.836c0-0.762-0.329-1.489-0.834-1.904
			c-6.778-9.387-12.462-24.014-1.156-40.523c4.767-0.49,19.698-2.91,29.014-14.197l7.312,18.206
			c0.079,0.186,8.113,19.415,0.018,36.2c-0.501,1.041-0.268,2.273,0.587,3.056c0.83,0.766,2.137,0.905,3.106,0.329
			c14.015-8.264,23.388-23.692,25.07-41.275c0.175-1.875,0.268-3.811,0.268-5.737C152.294,23.814,131.05,0,104.946,0
			C78.835,0,57.587,23.814,57.587,53.089C57.584,73.678,68.349,92.588,85.019,101.256z M104.943,5.229
			c23.23,0,42.127,21.473,42.127,47.864c0,1.736-0.082,3.5-0.247,5.239c-1.22,12.802-7.007,24.54-15.933,32.46
			c3.94-16.384-2.534-31.648-2.817-32.296L119,35.889c-0.372-0.916-1.242-1.56-2.23-1.632c-0.064-0.004-0.136-0.004-0.2-0.004
			c-0.93,0-1.793,0.494-2.255,1.281c-8.625,14.673-28.763,15.851-28.971,15.861c-0.798,0.047-1.517,0.444-1.983,1.081
			c-8.779,12.157-10.543,24.751-5.264,37.478c-9.609-9.062-15.292-22.668-15.292-36.862C62.802,26.702,81.709,5.229,104.943,5.229z"
			/>
	</g>
</g>
<g>
</g>
<g>
</g>
<g>
</g>
<g>
</g>
<g>
</g>
<g>
</g>
<g>
</g>
<g>
</g>
<g>
</g>
<g>
</g>
<g>
</g>
<g>
</g>
<g>
</g>
<g>
</g>
<g>
</g>
</svg>
